:SAMPLES-PER-SECOND 30
:FULLY-SPECIFIED
:DEGREES
827
root  35.2603 39.0612 7.38762 -8.11877 42.9196 -3.02124
RightUpLeg  -13.8443 2.41405 -3.80314
RightLeg  15.5466 15.8427 4.36374
RightFoot  3.94242 -0.828453 6.37147
RightToes  0.000481921 0.542163 -0.142578
Spine  17.0398 -0.970136 -7.43008
Spine1  12.1475 -7.33686 16.5213
HEad  27.3799 21.067 4.63253
LeftShoulder1  4.02736 -10.4566 -22.4639
LeftArm  -25.4128 10.388 -12.7372
LeftForeArm  -168.042 -62.4864 -165.115
LeftHand  -0.25398 0.0180481 5.50724
RightShoulder  4.78841 10.2309 28.8773
RightArm  16.1401 25.6339 64.6279
RightForeArm  161.759 72.9457 147.401
RightHand  -0.556055 1.78758 -9.16438
LeftUpLeg  6.43613 46.0366 18.2536
LeftLeg  28.86 18.2914 10.9563
LeftFoot  -13.3657 -0.0913489 -9.64626
LeftToes  1.06244e-005 4.65869e-005 -8.65518e-006
828
root  35.6422 39.3937 7.38051 -7.73401 45.0339 -2.23499
RightUpLeg  -10.9836 -1.07671 -4.85129
RightLeg  11.955 17.8127 3.08905
RightFoot  4.66853 -0.908079 6.67965
RightToes  0.000481921 0.542163 -0.142578
Spine  14.7782 -2.13308 -2.77464
Spine1  13.7127 -6.02945 9.9614
HEad  27.5555 20.0523 5.1691
LeftShoulder1  5.22051 -11.409 -28.981
LeftArm  -19.1063 19.1596 -18.6221
LeftForeArm  -150.793 -47.4867 -171.778
LeftHand  -0.25398 0.0180481 5.50724
RightShoulder  4.81511 10.1483 29.2917
RightArm  15.0923 21.2817 65.1617
RightForeArm  155.599 71.8094 148.535
RightHand  -0.736565 1.88718 -11.9234
LeftUpLeg  7.16218 41.5734 15.0072
LeftLeg  24.9311 21.6571 10.8478
LeftFoot  -11.7071 0.040712 -9.09884
LeftToes  1.06244e-005 4.65869e-005 -8.65518e-006
829
root  35.968 39.6172 7.40531 -7.16333 47.1373 -1.41638
RightUpLeg  -8.93515 -3.69474 -6.10358
RightLeg  9.55669 18.6942 2.31404
RightFoot  5.06381 -0.915164 6.58181
RightToes  0.000481921 0.542163 -0.142578
Spine  12.3163 -2.50135 0.594312
Spine1  14.5024 -4.51458 4.98808
HEad  26.8617 18.3819 5.15972
LeftShoulder1  5.89204 -10.828 -35.0719
LeftArm  -13.5673 25.8954 -26.1728
LeftForeArm  -148.614 -42.652 -173.004
LeftHand  -0.25398 0.0180481 5.50724
RightShoulder  4.74733 10.0261 29.1058
RightArm  14.2467 19.2142 65.524
RightForeArm  154.219 70.9979 149.694
RightHand  -0.852869 2.29531 -13.0917
LeftUpLeg  8.30892 36.705 12.9283
LeftLeg  21.5927 25.2539 9.14187
LeftFoot  -10.6012 0.118929 -8.52679
LeftToes  1.06244e-005 4.65869e-005 -8.65518e-006
830
root  36.1961 39.7001 7.45072 -6.46948 48.4958 -0.185059
RightUpLeg  -8.0541 -4.47534 -7.52988
RightLeg  9.5161 18.4395 2.26742
RightFoot  4.55883 -0.894531 6.62365
RightToes  0.000481921 0.542163 -0.142578
Spine  10.377 -1.47725 3.18219
Spine1  14.3322 -1.88828 0.832846
HEad  26.3332 15.1351 5.27447
LeftShoulder1  6.17293 -10.163 -38.9455
LeftArm  -11.0726 29.7632 -33.3858
LeftForeArm  -158.86 -45.2319 -171.639
LeftHand  -0.25398 0.0180481 5.50724
RightShoulder  4.64355 9.63144 29.3796
RightArm  12.7326 18.8638 64.3839
RightForeArm  158.472 70.0164 151.806
RightHand  -0.811127 2.33466 -12.396
LeftUpLeg  9.73743 30.489 11.634
LeftLeg  19.5956 30.5423 6.43401
LeftFoot  -10.1567 0.147198 -8.34293
LeftToes  1.06244e-005 4.65869e-005 -8.65518e-006
831
root  36.2622 39.6294 7.47038 -6.03369 50.8353 1.03308
RightUpLeg  -8.01614 -3.51328 -9.09103
RightLeg  11.8579 15.6028 2.58491
RightFoot  2.82377 -0.837707 6.89212
RightToes  0.000481921 0.542163 -0.142578
Spine  9.39759 -0.188988 5.18824
Spine1  13.7918 0.670677 -2.56499
HEad  26.0852 11.2704 5.2982
LeftShoulder1  6.60646 -10.7118 -40.2046
LeftArm  -11.3043 31.5628 -37.66
LeftForeArm  -167.004 -49.6272 -169.694
LeftHand  -0.25398 0.0180481 5.50724
RightShoulder  4.5172 9.03799 30.0553
RightArm  11.1469 20.2437 62.8125
RightForeArm  160.756 69.3582 153.037
RightHand  -0.801933 2.33889 -12.2487
LeftUpLeg  10.4225 30.8419 11.6055
LeftLeg  19.2784 28.0051 5.25025
LeftFoot  -10.6098 0.116742 -8.30707
LeftToes  1.06244e-005 4.65869e-005 -8.65518e-006
832
root  36.1333 39.3959 7.46478 -5.50806 55.0879 2.45972
RightUpLeg  -8.68709 -1.67979 -10.9575
RightLeg  16.3344 10.1383 2.86392
RightFoot  0.131916 -0.708934 7.0519
RightToes  0.000481921 0.542163 -0.142578
Spine  9.30408 0.36569 5.65058
Spine1  13.5532 1.79688 -4.25191
HEad  25.354 8.77294 4.2433
LeftShoulder1  7.26823 -11.8606 -40.9914
LeftArm  -11.0879 31.0079 -36.7505
LeftForeArm  -167.885 -51.6692 -168.847
LeftHand  -0.25398 0.0180481 5.50724
RightShoulder  4.48821 8.79644 30.5318
RightArm  10.3329 23.5205 61.8061
RightForeArm  158.899 69.4199 152.704
RightHand  -0.884715 2.56353 -13.1263
LeftUpLeg  9.2786 35.9023 11.7876
LeftLeg  21.4842 18.6613 6.44453
LeftFoot  -11.8457 0.0345969 -8.20116
LeftToes  1.06244e-005 4.65869e-005 -8.65518e-006
833
root  35.8451 38.9852 7.47156 -4.27478 60.2437 5.03503
RightUpLeg  -9.89071 -1.82741 -12.965
RightLeg  22.77 5.89566 2.52944
RightFoot  -2.90292 -0.535552 6.9766
RightToes  0.000481921 0.542163 -0.142578
Spine  10.5373 0.389761 4.27281
Spine1  13.3513 1.79599 -4.31577
HEad  23.6456 8.28153 2.03708
LeftShoulder1  7.75027 -12.5549 -41.8963
LeftArm  -9.47665 27.568 -32.517
LeftForeArm  -165.744 -51.3102 -169.125
LeftHand  -0.25398 0.0180481 5.50724
RightShoulder  4.64317 9.23781 30.488
RightArm  9.84826 27.5571 61.3452
RightForeArm  158.329 69.5333 152.474
RightHand  -0.912107 2.78727 -13.1711
LeftUpLeg  6.12925 34.0207 9.48035
LeftLeg  26.0705 15.1338 8.47786
LeftFoot  -13.3251 -0.0634138 -8.24635
LeftToes  1.06244e-005 4.65869e-005 -8.65518e-006
834
root  35.4894 38.4454 7.50686 -2.24219 65.3676 9.02893
RightUpLeg  -10.6665 -2.99409 -15.1173
RightLeg  29.6068 2.97893 1.60343
RightFoot  -5.67543 -0.381424 6.92392
RightToes  0.000481921 0.542163 -0.142578
Spine  13.2363 0.334862 2.45053
Spine1  12.9162 1.66966 -4.30421
HEad  21.0152 8.91431 -0.663915
LeftShoulder1  7.75078 -12.7039 -41.4796
LeftArm  -8.21375 22.0042 -29.1333
LeftForeArm  -165.737 -50.4781 -169.449
LeftHand  -0.25398 0.0180481 5.50724
RightShoulder  4.82917 9.92974 29.9845
RightArm  9.04514 30.884 61.3784
RightForeArm  161.762 68.9926 153.645
RightHand  -0.840026 2.88422 -12.027
LeftUpLeg  3.40286 28.2954 6.85748
LeftLeg  31.4029 15.1404 10.1035
LeftFoot  -14.8665 -0.165785 -8.2705
LeftToes  1.06244e-005 4.65869e-005 -8.65518e-006
835
root  35.1666 37.933 7.55136 0.234985 70.5437 13.4065
RightUpLeg  -10.235 -4.56775 -16.9459
RightLeg  34.7355 0.728197 0.301122
RightFoot  -7.89611 -0.269829 7.19162
RightToes  0.000481921 0.542163 -0.142578
Spine  16.012 0.149142 2.00936
Spine1  12.9468 1.82023 -5.21835
HEad  18.0373 9.6473 -3.81303
LeftShoulder1  7.41209 -12.693 -39.5391
LeftArm  -7.6471 15.2928 -27.5616
LeftForeArm  -166.99 -49.8916 -169.588
LeftHand  -0.25398 0.0180481 5.50724
RightShoulder  4.86008 10.1866 29.526
RightArm  8.38441 33.0202 61.8174
RightForeArm  165.872 67.7714 155.65
RightHand  -0.812168 2.94556 -11.5595
LeftUpLeg  1.58455 23.8565 5.28896
LeftLeg  35.7367 13.8731 10.8549
LeftFoot  -16.309 -0.250629 -8.02578
LeftToes  1.06244e-005 4.65869e-005 -8.65518e-006
836
root  34.9341 37.6197 7.60341 3.55176 75.6319 17.567
RightUpLeg  -9.09253 -6.64129 -18.0208
RightLeg  37.2279 -1.01992 -1.08858
RightFoot  -9.42069 -0.194754 7.78014
RightToes  0.000481921 0.542163 -0.142578
Spine  17.353 -0.126419 3.34916
Spine1  13.8271 2.36235 -6.71429
HEad  15.4029 9.88735 -7.39025
LeftShoulder1  7.10536 -12.6243 -37.91
LeftArm  -6.94096 7.82671 -26.3519
LeftForeArm  -167.902 -49.2734 -169.757
LeftHand  -0.25398 0.0180481 5.50724
RightShoulder  4.89148 10.1077 29.9729
RightArm  8.256 33.5772 61.7441
RightForeArm  168.448 66.0659 157.767
RightHand  -0.843706 2.61409 -12.4609
LeftUpLeg  -0.160448 20.4581 4.49199
LeftLeg  38.2813 12.0959 10.432
LeftFoot  -17.1908 -0.276263 -7.41386
LeftToes  1.06244e-005 4.65869e-005 -8.65518e-006
837
root  34.78 37.5764 7.69257 9.50781 79.8611 23.0602
RightUpLeg  -8.24713 -8.83611 -18.5029
RightLeg  37.5235 -2.45261 -2.28295
RightFoot  -9.99294 -0.166996 8.35438
RightToes  0.000481921 0.542163 -0.142578
Spine  17.4436 -0.0481403 5.35256
Spine1  14.7152 3.46123 -8.39471
HEad  13.7395 9.40031 -10.5819
LeftShoulder1  6.97093 -12.4449 -37.5753
LeftArm  -5.85976 0.850755 -25.7862
LeftForeArm  -168.699 -48.8922 -169.845
LeftHand  -0.25398 0.0180481 5.50724
RightShoulder  5.23271 10.3984 31.6827
RightArm  7.96394 31.7456 60.4501
RightForeArm  172.354 63.98 160.084
RightHand  -0.836494 2.4085 -12.6587
LeftUpLeg  -1.99283 18.2674 3.91352
LeftLeg  38.674 10.4349 9.21814
LeftFoot  -17.045 -0.223719 -6.52232
LeftToes  1.06244e-005 4.65869e-005 -8.65518e-006
838
root  34.6596 37.7949 7.81948 20.7983 83.0234 33.0099
RightUpLeg  -7.78184 -11.2121 -18.6988
RightLeg  36.0879 -3.60283 -3.07547
RightFoot  -9.38697 -0.209303 8.52016
RightToes  0.000481921 0.542163 -0.142578
Spine  17.3506 0.430625 7.04194
Spine1  14.8035 4.91368 -10.2866
HEad  12.9886 8.14857 -12.3072
LeftShoulder1  6.83012 -12.198 -37.3704
LeftArm  -4.72354 -3.89704 -27.4566
LeftForeArm  -168.726 -49.0659 -169.779
LeftHand  -0.25398 0.0180481 5.50724
RightShoulder  5.83517 11.1281 33.9272
RightArm  7.06654 27.675 58.8249
RightForeArm  179.368 61.7472 162.487
RightHand  -0.780453 3.31492 -10.7181
LeftUpLeg  -3.53519 16.8585 3.18744
LeftLeg  36.882 9.24804 7.74882
LeftFoot  -15.7418 -0.119695 -5.54835
LeftToes  1.06244e-005 4.65869e-005 -8.65518e-006
839
root  34.5557 38.2129 7.95842 45.7704 85.594 56.1667
RightUpLeg  -7.01869 -14.3928 -18.6185
RightLeg  32.9463 -4.42937 -3.33491
RightFoot  -7.84209 -0.305417 8.2493
RightToes  0.000481921 0.542163 -0.142578
Spine  17.2407 0.896567 8.26461
Spine1  14.3573 6.14434 -12.0646
HEad  12.6357 6.371 -12.4217
LeftShoulder1  6.61802 -11.973 -36.6579
LeftArm  -3.8732 -6.43571 -30.8479
LeftForeArm  -167.51 -49.3823 -169.743
LeftHand  -0.25398 0.0180481 5.50724
RightShoulder  6.31435 11.7187 35.5103
RightArm  6.03955 23.1508 58.0412
RightForeArm  -173.616 59.7887 164.399
RightHand  -0.646967 4.49367 -7.91603
LeftUpLeg  -4.65709 15.5191 2.52727
LeftLeg  33.3115 8.26455 6.16979
LeftFoot  -13.5891 -0.0115015 -4.73282
LeftToes  1.06244e-005 4.65869e-005 -8.65518e-006
840
root  34.4783 38.7195 8.09865 96.667 86.8492 104.973
RightUpLeg  -5.70545 -18.3417 -18.0934
RightLeg  28.3588 -4.96634 -3.13518
RightFoot  -5.90111 -0.416327 7.89988
RightToes  0.000481921 0.542163 -0.142578
Spine  16.68 1.21641 9.13466
Spine1  13.9842 6.86294 -13.083
HEad  12.2872 4.46881 -11.6457
LeftShoulder1  6.57049 -11.9613 -36.3896
LeftArm  -3.18119 -8.10473 -33.7913
LeftForeArm  -166.322 -49.5194 -169.769
LeftHand  -0.25398 0.0180481 5.50724
RightShoulder  6.4459 11.9421 35.7515
RightArm  5.3113 20.1222 58.0596
RightForeArm  -170.438 58.4689 165.431
RightHand  -0.571599 4.3461 -7.17824
LeftUpLeg  -5.54435 14.183 2.29183
LeftLeg  28.7777 7.01579 4.50603
LeftFoot  -11.0532 0.0776645 -4.29218
LeftToes  1.06244e-005 4.65869e-005 -8.65518e-006
841
root  34.4188 39.1857 8.23953 145.029 85.4954 151.326
RightUpLeg  -4.29126 -21.8801 -17.1815
RightLeg  23.3439 -5.42298 -2.80635
RightFoot  -3.97948 -0.522657 7.68862
RightToes  0.000481921 0.542163 -0.142578
Spine  15.9504 1.56392 9.63584
Spine1  13.6426 7.30672 -13.3979
HEad  11.9858 2.76021 -10.3028
LeftShoulder1  6.75442 -12.2725 -36.7089
LeftArm  -2.5171 -9.56614 -35.5197
LeftForeArm  -166.084 -49.8291 -169.67
LeftHand  -0.25398 0.0180481 5.50724
RightShoulder  6.33049 12.0274 34.7954
RightArm  4.59679 19.2726 58.3535
RightForeArm  -170.896 57.7219 165.802
RightHand  -0.719928 3.75263 -9.40753
LeftUpLeg  -6.19976 13.3158 2.41459
LeftLeg  24.2286 5.51402 3.04347
LeftFoot  -8.56856 0.153405 -4.20165
LeftToes  1.06244e-005 4.65869e-005 -8.65518e-006
